# xmcd CD database file
#
# Track frame offsets:
#	150
#	17837
#	31406
#	63360
#	79023
#	101599
#	119917
#	157847
#	175776
#	200881
#	222838
#	247327
#
# Disc length: 3576 seconds
#
# Revision: 0
# Processed by: cddbd v1.5.2PL0 Copyright (c) Steve Scherf et al.
# Submitted via: CDex 1.50beta10
#
DISCID=aa0df60c
DTITLE=Big Ed Sullivan - Fast cars, cheap women and dirty pool
DYEAR=2004
DGENRE=Blues
TTITLE0=Scratching my head
TTITLE1=Rock a bye Babe
TTITLE2=Even money
TTITLE3=Black cat woman
TTITLE4=I'm a king bee
TTITLE5=Run chicken run
TTITLE6=Tailspin
TTITLE7=Badseed
TTITLE8=Rich girls
TTITLE9=Dark side of midnight
TTITLE10=Start all over again
TTITLE11=Fast cars, cheap women and dirty pool
EXTD=YEAR: 2004
EXTT0=
EXTT1=
EXTT2=
EXTT3=
EXTT4=
EXTT5=
EXTT6=
EXTT7=
EXTT8=
EXTT9=
EXTT10=
EXTT11=
PLAYORDER=
